<svg width="413" height="175" viewBox="0 0 413 175" fill="none" xmlns="http://www.w3.org/2000/svg">
<path d="M61.3473 8.63788C65.0233 8.63788 67.9319 9.94053 70.0732 12.5458C72.2146 15.1511 72.964 18.2917 72.3216 21.9677L71.1974 28.3382L70.3944 32.9956L69.2702 39.366C68.6992 42.5424 67.1824 45.3618 64.7199 47.8243C62.2931 50.2512 59.4915 51.7679 56.3152 52.3746L62.3109 77H39.1845L33.2958 52.6423H26.2829L21.9467 77H-0.00195277L12.0966 8.63788H61.3473ZM47.8569 32.2996C48.3922 31.8357 48.7134 31.2825 48.8205 30.6401C48.9276 29.9977 48.7848 29.4624 48.3922 29.0341C48.0353 28.5701 47.5357 28.3382 46.8933 28.3382H30.5656L29.7091 32.9956H46.0903C46.7327 32.9956 47.3216 32.7636 47.8569 32.2996ZM101.39 8.63788H132.6L129.121 28.3382H97.9106L97.0541 32.9956H116.861L113.382 52.6423H93.6279L92.7714 57.3533H123.981L120.555 77H67.343L69.5914 64.2591L70.8227 57.3533L71.6792 52.6423L72.5893 47.3425L75.9619 28.3382L79.4416 8.63788H101.39ZM135.812 21.9677C136.455 18.2917 138.293 15.1511 141.326 12.5458C144.395 9.94053 147.768 8.63788 151.444 8.63788H191.005L187.525 28.2846H158.939C158.296 28.2846 157.69 28.5166 157.119 28.9806C156.583 29.4445 156.262 29.9977 156.155 30.6401C156.048 31.2825 156.173 31.8357 156.53 32.2996C156.922 32.7636 157.44 32.9956 158.082 32.9956H172.054H173.446C177.122 32.9956 180.013 34.2982 182.119 36.9035C184.26 39.5088 185.009 42.6494 184.367 46.3254L181.262 63.6702C180.62 67.3461 178.764 70.4868 175.695 73.0921C172.625 75.6974 169.253 77 165.577 77H126.016L129.495 57.3533H158.136C158.778 57.3533 159.367 57.1213 159.902 56.6573C160.438 56.1934 160.759 55.6402 160.866 54.9978C160.973 54.3554 160.83 53.8022 160.438 53.3382C160.081 52.8743 159.581 52.6423 158.939 52.6423H145.02H143.628C139.952 52.6423 137.043 51.3575 134.902 48.7879C132.797 46.1826 132.065 43.042 132.707 39.366L135.812 21.9677ZM228.8 54.9978L236.937 8.63788H258.885L248.821 66.0257C248.286 69.0592 246.751 71.6467 244.217 73.788C241.683 75.9293 238.9 77 235.866 77H195.234C192.201 77 189.792 75.9293 188.007 73.788C186.259 71.6467 185.652 69.0592 186.187 66.0257L196.305 8.63788H218.254L210.063 54.9978C209.956 55.6402 210.099 56.1934 210.491 56.6573C210.884 57.1213 211.401 57.3533 212.044 57.3533H226.016C226.658 57.3533 227.247 57.1213 227.783 56.6573C228.354 56.1934 228.693 55.6402 228.8 54.9978ZM327.141 14.8478C328.39 12.9562 329.996 11.4573 331.959 10.3509C333.957 9.2089 336.009 8.63788 338.115 8.63788H354.335L342.29 77H320.342L324.41 53.82L312.312 72.0749C311.277 73.6096 309.956 74.823 308.35 75.7152C306.744 76.5717 305.013 77 303.158 77H293.575C291.148 77 288.971 76.2862 287.044 74.8587C285.117 73.4311 283.796 71.5753 283.083 69.2912L278.318 53.82L274.196 77H252.247L264.346 8.63788H280.566C282.672 8.63788 284.51 9.2089 286.08 10.3509C287.686 11.4573 288.775 12.9562 289.346 14.8478L301.391 53.713L327.141 14.8478ZM381.691 8.63788H412.901L409.421 28.3382H378.211L377.355 32.9956H397.162L393.683 52.6423H373.929L373.072 57.3533H404.282L400.856 77H347.644L349.892 64.2591L351.123 57.3533L351.98 52.6423L352.89 47.3425L356.263 28.3382L359.742 8.63788H381.691Z" fill="#38E1FF"/>
<path d="M29.0538 130.146C30.1958 128.575 31.445 127.398 32.8011 126.612C34.2287 125.827 35.6562 125.185 37.0838 124.685C38.5827 124.186 40.046 123.722 41.4735 123.293C42.9725 122.794 44.4357 122.009 45.8633 120.938C46.6484 120.51 47.7548 119.867 49.1823 119.011C50.6099 118.154 52.0018 117.226 53.358 116.227C54.7855 115.156 55.9989 114.121 56.9982 113.122C58.0689 112.123 58.6042 111.266 58.6042 110.552C58.6042 110.481 58.5685 110.445 58.4972 110.445C58.3544 110.445 58.283 110.41 58.283 110.338L58.0689 110.124C57.712 109.981 57.141 109.803 56.3558 109.589C55.5707 109.375 55.1067 109.232 54.964 109.161C45.7562 108.09 38.3329 107.162 32.6941 106.377C27.1266 105.52 22.8082 104.628 19.739 103.7C16.7411 102.772 14.7425 101.702 13.7433 100.488C12.744 99.2747 12.2443 97.7401 12.2443 95.8842C12.2443 95.1705 12.3871 94.3853 12.6726 93.5288C12.9581 92.6722 13.2793 91.8157 13.6362 90.9592C14.0645 90.1026 14.4927 89.3175 14.921 88.6037C15.3493 87.8899 15.7418 87.3189 16.0987 86.8906C17.2408 85.4631 18.7397 84.1783 20.5955 83.0362C22.4513 81.8942 24.4499 80.8949 26.5913 80.0384C28.7326 79.1818 30.8739 78.4324 33.0153 77.79C35.228 77.1476 37.2266 76.5765 39.011 76.0769C41.0096 75.9341 43.0082 75.4702 45.0067 74.685C47.0767 73.8285 49.111 73.2575 51.1095 72.972C52.1088 72.972 52.9297 73.3645 53.5721 74.1497C54.2145 74.9348 54.5357 75.7557 54.5357 76.6122C54.5357 77.8256 54.2859 78.7536 53.7862 79.396C53.358 79.967 52.7512 80.4309 51.9661 80.7878C51.2523 81.0733 50.4315 81.3232 49.5035 81.5373C48.5756 81.68 47.6477 81.8585 46.7198 82.0726C46.1488 82.2154 45.3636 82.4295 44.3643 82.715C43.3651 82.9292 42.3658 83.179 41.3665 83.4645C40.3672 83.75 39.475 83.9998 38.6898 84.214C37.9046 84.4281 37.4407 84.5709 37.2979 84.6422C35.0852 85.5701 32.9796 86.4624 30.981 87.3189C29.0538 88.1041 27.3407 88.9249 25.8418 89.7814C24.4142 90.638 23.2722 91.5659 22.4157 92.5652C21.6305 93.4931 21.2736 94.5281 21.345 95.6701V95.7772C22.0588 96.7765 23.6648 97.5259 26.163 98.0256C28.6612 98.5252 31.5877 98.9535 34.9425 99.3104C38.3686 99.6673 41.9375 100.024 45.6491 100.381C49.4322 100.738 52.894 101.273 56.0346 101.987C59.1752 102.701 61.7805 103.664 63.8505 104.878C65.9204 106.091 66.9911 107.733 67.0625 109.803C67.0625 110.588 66.884 111.516 66.5272 112.587C66.2416 113.657 65.8134 114.478 65.2424 115.049C63.4579 117.048 61.3166 119.118 58.8184 121.259C56.3915 123.4 53.7505 125.399 50.8954 127.255C48.0403 129.039 45.0781 130.574 42.0089 131.859C39.011 133.072 36.0488 133.786 33.1223 134C32.123 134 31.1951 133.643 30.3386 132.929C29.4821 132.144 29.0538 131.216 29.0538 130.146ZM71.6664 115.049C71.7377 114.621 71.7377 113.479 71.6664 111.623C71.595 109.767 71.5593 107.483 71.5593 104.771C71.6307 101.987 71.7021 98.9535 71.7734 95.6701C71.9162 92.3867 72.166 89.0677 72.5229 85.7129C72.9512 82.3581 73.5222 79.1461 74.236 76.0769C75.0211 72.9363 76.0204 70.2239 77.2338 67.9398C77.6621 66.0126 78.6971 64.6921 80.3388 63.9783C81.9805 63.1932 84.3002 62.7292 87.2981 62.5865C89.2253 62.5865 90.867 63.0861 92.2232 64.0854C93.5794 65.0847 94.7214 66.3338 95.6493 67.8327C96.6486 69.2603 97.5051 70.8306 98.2189 72.5437C98.9327 74.2568 99.5751 75.7914 100.146 77.1476V77.6829C100.646 79.1104 101.003 81.2518 101.217 84.1069C101.502 86.8906 101.681 89.8528 101.752 92.9934C101.895 96.0627 101.966 99.0249 101.966 101.88C101.966 104.735 101.966 106.912 101.966 108.411C101.966 110.552 101.681 113.122 101.11 116.12C100.539 119.046 99.6108 121.83 98.326 124.471C97.1126 127.112 95.5066 129.36 93.508 131.216C91.5094 133.072 89.1182 134 86.3345 134C83.979 134 81.8734 133.393 80.0176 132.18C78.2331 130.966 76.6985 129.432 75.4137 127.576C74.2003 125.649 73.2724 123.579 72.63 121.366C71.9876 119.153 71.6664 117.048 71.6664 115.049ZM82.0518 122.223C82.1946 123.008 82.5872 123.829 83.2296 124.685C83.9434 125.47 84.7642 125.863 85.6921 125.863H86.5486C89.5465 123.151 91.5094 120.046 92.4373 116.548C93.3652 112.979 93.8292 109.232 93.8292 105.306C93.8292 104.378 93.7935 102.951 93.7221 101.023C93.6507 99.0962 93.508 96.9549 93.2938 94.5994C93.1511 92.1726 92.937 89.6387 92.6514 86.9977C92.3659 84.3567 92.009 81.8942 91.5808 79.6101C91.1525 77.2546 90.6529 75.2204 90.0818 73.5073C89.5108 71.7942 88.8327 70.6165 88.0476 69.9741C87.9762 70.0455 87.8691 70.1882 87.7264 70.4024C87.655 70.6165 87.6193 70.7592 87.6193 70.8306C86.1204 72.6864 84.7642 75.2204 83.5508 78.4324C82.3374 81.6444 81.4094 85.4631 80.767 89.8885C80.196 94.2425 79.9462 99.1676 80.0176 104.664C80.1603 110.088 80.8384 115.941 82.0518 122.223ZM108.069 117.405C108.069 111.909 108.14 106.448 108.283 101.023C108.497 95.5987 108.604 90.1026 108.604 84.5352C108.604 81.3232 108.426 78.1112 108.069 74.8992C107.784 71.6872 107.641 68.4751 107.641 65.2631C107.641 64.2639 107.926 63.4073 108.497 62.6935C109.14 61.9798 109.961 61.6229 110.96 61.6229C112.673 61.6229 113.958 61.9798 114.814 62.6935C115.671 63.4073 116.278 64.2995 116.634 65.3702C116.991 66.4409 117.17 67.6543 117.17 69.0105C117.17 70.3667 117.17 71.6872 117.17 72.972C117.17 73.2575 117.17 73.9712 117.17 75.1133C117.241 76.2553 117.312 77.5044 117.384 78.8606C117.455 80.1454 117.491 81.3588 117.491 82.5009C117.562 83.6429 117.598 84.3567 117.598 84.6422V88.1754C117.598 92.815 117.527 97.4189 117.384 101.987C117.241 106.555 117.17 111.195 117.17 115.906V120.403C117.17 120.759 117.205 121.259 117.277 121.901C117.42 122.472 117.527 122.758 117.598 122.758H118.455L143.829 112.694C144.4 112.194 144.9 111.944 145.328 111.944C145.757 111.873 146.256 111.837 146.827 111.837C147.184 111.837 147.648 111.873 148.219 111.944C148.79 111.944 149.325 112.051 149.825 112.265C150.396 112.408 150.86 112.658 151.217 113.015C151.645 113.3 151.859 113.764 151.859 114.407C151.859 116.048 150.967 117.476 149.183 118.689C146.899 119.903 144.543 121.045 142.116 122.116C139.689 123.115 137.227 123.936 134.729 124.578L134.193 125.006C130.767 125.934 127.555 127.29 124.557 129.075C121.631 130.859 118.562 132.501 115.35 134H114.386C112.459 134 111.031 133.358 110.103 132.073C109.175 130.788 108.569 129.289 108.283 127.576C107.998 125.792 107.891 123.971 107.962 122.116C108.033 120.188 108.069 118.618 108.069 117.405ZM184.301 118.904C183.515 120.403 182.552 122.08 181.41 123.936C180.339 125.792 179.054 127.576 177.555 129.289C176.128 130.931 174.558 132.323 172.844 133.465C171.203 134.607 169.418 135.178 167.491 135.178C165.064 135.178 163.137 134.464 161.71 133.036C160.282 131.609 159.176 129.86 158.39 127.79C157.677 125.649 157.213 123.436 156.999 121.152C156.784 118.797 156.677 116.691 156.677 114.835V112.051C156.749 111.48 156.82 110.624 156.892 109.482C157.034 108.34 157.177 107.055 157.32 105.627C157.534 104.128 157.712 102.594 157.855 101.023C157.998 99.3818 158.141 97.8471 158.283 96.4196C158.498 94.9206 158.64 93.6001 158.712 92.4581C158.854 91.3161 158.961 90.4595 159.033 89.8885C158.747 89.1747 158.64 88.4609 158.712 87.7472C158.854 86.962 159.104 86.2839 159.461 85.7129C159.889 85.0705 160.425 84.5709 161.067 84.214C161.71 83.7857 162.423 83.5716 163.208 83.5716C163.423 83.5716 163.779 83.6429 164.279 83.7857C164.85 83.9284 165.421 84.1426 165.992 84.4281C166.563 84.7136 167.063 85.0348 167.491 85.3917C167.919 85.6772 168.134 85.9627 168.134 86.2482V90.3168C167.134 98.0256 166.492 104.164 166.206 108.732C165.921 113.3 165.814 116.869 165.885 119.439C165.956 121.937 166.171 123.65 166.528 124.578C166.884 125.506 167.241 126.148 167.598 126.505C168.455 126.862 169.276 126.969 170.061 126.827C170.917 126.612 171.917 125.934 173.059 124.792C174.201 123.65 175.557 121.901 177.127 119.546C178.769 117.119 180.732 113.907 183.016 109.91C183.159 109.696 183.301 109.303 183.444 108.732C183.658 108.161 183.801 107.769 183.872 107.555C183.73 102.844 183.694 98.0969 183.765 93.3146C183.908 88.5323 184.086 83.7857 184.301 79.0748C184.586 78.361 185.05 77.79 185.692 77.3617C186.335 76.9334 187.013 76.7193 187.727 76.7193C188.012 76.7193 188.441 76.8264 189.012 77.0405C189.583 77.2546 190.154 77.5758 190.725 78.0041C191.296 78.361 191.795 78.7536 192.224 79.1818C192.652 79.6101 192.866 80.0384 192.866 80.4666V112.051C193.366 115.263 193.758 118.511 194.044 121.794C194.329 125.006 194.722 128.218 195.221 131.43C195.221 131.787 195.293 132.537 195.436 133.679C195.65 134.749 195.864 135.927 196.078 137.212C196.292 138.497 196.471 139.675 196.613 140.745C196.827 141.816 196.97 142.494 197.042 142.779V144.064C197.042 146.634 195.65 148.026 192.866 148.24C191.653 148.383 190.618 147.847 189.761 146.634C188.976 145.492 188.333 143.957 187.834 142.03C187.334 140.174 186.906 138.069 186.549 135.713C186.263 133.358 186.014 131.074 185.8 128.861C185.585 126.648 185.371 124.65 185.157 122.865C184.943 121.009 184.657 119.689 184.301 118.904ZM221.024 86.9977C220.953 86.4267 220.846 85.7129 220.703 84.8564C220.632 83.9284 220.525 83.0719 220.382 82.2868C220.311 81.4302 220.239 80.7164 220.168 80.1454C220.097 79.5744 220.061 79.2889 220.061 79.2889H219.204L206.999 82.9292C206.642 83.5002 206.035 83.7857 205.179 83.7857C204.393 83.7857 203.787 83.7857 203.358 83.7857C202.359 83.7857 201.324 83.3574 200.254 82.5009C199.254 81.573 198.755 80.5737 198.755 79.503C198.755 78.7179 199.004 77.9684 199.504 77.2546C200.075 76.4695 200.753 75.9341 201.538 75.6486L218.776 70.1882C218.99 69.4031 219.383 68.6179 219.954 67.8327C220.596 66.9762 221.417 66.5479 222.416 66.5479C223.416 66.5479 224.236 66.7978 224.879 67.2974C225.593 67.7971 226.378 68.1896 227.234 68.4751C227.877 68.4038 228.947 68.1896 230.446 67.8327C231.945 67.4759 233.516 67.119 235.157 66.7621C236.87 66.3338 238.476 65.9412 239.975 65.5843C241.474 65.2275 242.509 64.9776 243.08 64.8349C243.937 64.6921 244.579 64.5137 245.007 64.2995C245.436 64.0854 246.114 63.9783 247.042 63.9783C248.255 63.9783 249.504 64.3352 250.789 65.049C252.074 65.7628 252.716 66.8335 252.716 68.261C252.716 69.1889 252.395 70.0098 251.753 70.7236C251.11 71.366 250.325 71.7942 249.397 72.0084L229.054 77.1476V78.1112C229.054 80.3239 229.233 82.5009 229.59 84.6422C230.018 86.7836 230.161 88.9249 230.018 91.0662L233.658 124.15V126.505C233.658 127.362 233.623 128.254 233.551 129.182C233.551 130.039 233.409 130.824 233.123 131.537C232.909 132.251 232.516 132.858 231.945 133.358C231.374 133.786 230.518 134 229.376 134C228.519 134 227.591 133.643 226.592 132.929C225.664 132.216 225.164 131.359 225.093 130.36L221.024 87.8542V86.9977ZM248.219 73.4002C248.79 72.6151 249.29 72.1154 249.718 71.9013C250.218 71.6158 250.896 71.473 251.753 71.473C252.895 71.473 253.965 71.7942 254.965 72.4366C256.035 73.079 256.642 74.0069 256.785 75.2204C257.07 77.2189 257.213 79.2532 257.213 81.3232C257.284 83.3217 257.284 85.356 257.213 87.426C257.213 89.4245 257.177 91.4588 257.106 93.5288C257.106 95.5273 257.177 97.5259 257.32 99.5245C257.606 104.378 258.034 109.41 258.605 114.621C259.247 119.832 259.569 124.864 259.569 129.717C259.569 131.145 259.283 132.216 258.712 132.929C258.141 133.643 257.035 134 255.393 134C254.037 134 253.002 133.536 252.288 132.608C251.574 131.68 251.039 130.574 250.682 129.289C250.396 128.004 250.218 126.719 250.147 125.435C250.075 124.078 250.04 123.008 250.04 122.223C250.04 121.652 249.968 120.474 249.825 118.689C249.754 116.834 249.647 114.692 249.504 112.265C249.433 109.767 249.326 107.162 249.183 104.45C249.04 101.666 248.898 99.0606 248.755 96.6337C248.612 94.1355 248.469 91.9941 248.326 90.2097C248.255 88.3539 248.219 87.1405 248.219 86.5694V79.9313V73.4002ZM264.601 115.049C264.672 114.621 264.672 113.479 264.601 111.623C264.529 109.767 264.494 107.483 264.494 104.771C264.565 101.987 264.636 98.9535 264.708 95.6701C264.85 92.3867 265.1 89.0677 265.457 85.7129C265.885 82.3581 266.456 79.1461 267.17 76.0769C267.955 72.9363 268.955 70.2239 270.168 67.9398C270.596 66.0126 271.631 64.6921 273.273 63.9783C274.915 63.1932 277.235 62.7292 280.232 62.5865C282.16 62.5865 283.801 63.0861 285.157 64.0854C286.514 65.0847 287.656 66.3338 288.584 67.8327C289.583 69.2603 290.439 70.8306 291.153 72.5437C291.867 74.2568 292.509 75.7914 293.08 77.1476V77.6829C293.58 79.1104 293.937 81.2518 294.151 84.1069C294.437 86.8906 294.615 89.8528 294.686 92.9934C294.829 96.0627 294.901 99.0249 294.901 101.88C294.901 104.735 294.901 106.912 294.901 108.411C294.901 110.552 294.615 113.122 294.044 116.12C293.473 119.046 292.545 121.83 291.26 124.471C290.047 127.112 288.441 129.36 286.442 131.216C284.444 133.072 282.053 134 279.269 134C276.913 134 274.808 133.393 272.952 132.18C271.167 130.966 269.633 129.432 268.348 127.576C267.135 125.649 266.207 123.579 265.564 121.366C264.922 119.153 264.601 117.048 264.601 115.049ZM274.986 122.223C275.129 123.008 275.521 123.829 276.164 124.685C276.878 125.47 277.698 125.863 278.626 125.863H279.483C282.481 123.151 284.444 120.046 285.372 116.548C286.3 112.979 286.763 109.232 286.763 105.306C286.763 104.378 286.728 102.951 286.656 101.023C286.585 99.0962 286.442 96.9549 286.228 94.5994C286.085 92.1726 285.871 89.6387 285.586 86.9977C285.3 84.3567 284.943 81.8942 284.515 79.6101C284.087 77.2546 283.587 75.2204 283.016 73.5073C282.445 71.7942 281.767 70.6165 280.982 69.9741C280.91 70.0455 280.803 70.1882 280.661 70.4024C280.589 70.6165 280.554 70.7592 280.554 70.8306C279.055 72.6864 277.698 75.2204 276.485 78.4324C275.272 81.6444 274.344 85.4631 273.701 89.8885C273.13 94.2425 272.88 99.1676 272.952 104.664C273.095 110.088 273.773 115.941 274.986 122.223ZM300.04 120.617C300.04 116.263 300.111 111.909 300.254 107.555C300.468 103.129 300.682 98.7394 300.896 94.3853C301.11 89.9599 301.253 85.5701 301.325 81.2161C301.467 76.7907 301.467 72.4009 301.325 68.0469C301.539 67.2617 301.931 66.6907 302.502 66.3338C303.073 65.9055 303.751 65.6914 304.537 65.6914C306.035 65.6914 307.178 65.9769 307.963 66.5479C308.748 67.0476 309.319 67.7614 309.676 68.6893C310.033 69.6172 310.247 70.6522 310.318 71.7942C310.39 72.9363 310.461 74.0783 310.532 75.2204C311.389 76.7907 312.388 78.3253 313.53 79.8242C314.744 81.2518 315.814 82.715 316.742 84.214C316.742 84.2853 316.778 84.4638 316.849 84.7493C316.992 84.9634 317.099 85.0705 317.17 85.0705C317.599 85.7129 318.134 86.5694 318.776 87.6401C319.49 88.6394 320.168 89.6387 320.811 90.638C321.453 91.5659 321.988 92.3867 322.417 93.1005C322.916 93.8143 323.166 94.1712 323.166 94.1712L323.594 94.7065L329.804 103.7C330.09 103.986 330.34 104.128 330.554 104.128H330.768C329.84 96.5623 329.091 88.8535 328.52 81.002C327.948 73.079 327.663 65.2631 327.663 57.5543V52.201C328.234 51.2731 329.198 50.8091 330.554 50.8091C331.91 50.8091 332.909 51.1303 333.552 51.7727C334.194 52.4151 334.622 53.236 334.836 54.2353C335.051 55.1632 335.158 56.1982 335.158 57.3402C335.158 58.4109 335.193 59.4102 335.265 60.3381C335.265 60.4095 335.3 60.5522 335.372 60.7663C335.443 60.9091 335.515 61.3017 335.586 61.9441C335.729 62.5151 335.836 63.443 335.907 64.7278C336.05 65.9412 336.193 67.6543 336.335 69.867C336.55 72.0797 336.728 74.8635 336.871 78.2182C337.085 81.573 337.335 85.6772 337.62 90.5309V92.4581L341.26 116.334C341.332 116.905 341.617 117.797 342.117 119.011C342.688 120.153 342.974 121.045 342.974 121.687C342.974 123.186 342.545 124.4 341.689 125.328C340.832 126.256 339.619 126.719 338.048 126.719C337.834 126.719 337.549 126.648 337.192 126.505C336.835 126.291 336.478 126.077 336.121 125.863C335.764 125.649 335.407 125.435 335.051 125.221C334.765 124.935 334.551 124.721 334.408 124.578L317.17 100.06C317.099 100.06 317.028 99.9528 316.956 99.7386C316.885 99.4531 316.814 99.239 316.742 99.0962C316.314 98.4538 315.743 97.6687 315.029 96.7408C314.315 95.7415 313.637 94.7779 312.995 93.85C312.352 92.8507 311.781 91.9941 311.282 91.2804C310.782 90.5666 310.532 90.174 310.532 90.1026L309.997 89.6744C309.64 96.4553 309.355 103.308 309.14 110.231C308.926 117.083 308.926 123.936 309.14 130.788C308.998 131.645 308.534 132.394 307.749 133.036C307.035 133.679 306.285 134 305.5 134C304.073 134 302.931 133.643 302.074 132.929C301.289 132.144 300.611 131.145 300.04 129.931V120.617ZM363.744 130.146C364.887 128.575 366.136 127.398 367.492 126.612C368.919 125.827 370.347 125.185 371.774 124.685C373.273 124.186 374.737 123.722 376.164 123.293C377.663 122.794 379.126 122.009 380.554 120.938C381.339 120.51 382.445 119.867 383.873 119.011C385.301 118.154 386.692 117.226 388.049 116.227C389.476 115.156 390.69 114.121 391.689 113.122C392.76 112.123 393.295 111.266 393.295 110.552C393.295 110.481 393.259 110.445 393.188 110.445C393.045 110.445 392.974 110.41 392.974 110.338L392.76 110.124C392.403 109.981 391.832 109.803 391.046 109.589C390.261 109.375 389.797 109.232 389.655 109.161C380.447 108.09 373.024 107.162 367.385 106.377C361.817 105.52 357.499 104.628 354.43 103.7C351.432 102.772 349.433 101.702 348.434 100.488C347.435 99.2747 346.935 97.7401 346.935 95.8842C346.935 95.1705 347.078 94.3853 347.363 93.5288C347.649 92.6722 347.97 91.8157 348.327 90.9592C348.755 90.1026 349.183 89.3175 349.612 88.6037C350.04 87.8899 350.433 87.3189 350.789 86.8906C351.931 85.4631 353.43 84.1783 355.286 83.0362C357.142 81.8942 359.141 80.8949 361.282 80.0384C363.423 79.1818 365.565 78.4324 367.706 77.79C369.919 77.1476 371.917 76.5765 373.702 76.0769C375.7 75.9341 377.699 75.4702 379.697 74.685C381.767 73.8285 383.802 73.2575 385.8 72.972C386.8 72.972 387.62 73.3645 388.263 74.1497C388.905 74.9348 389.226 75.7557 389.226 76.6122C389.226 77.8256 388.977 78.7536 388.477 79.396C388.049 79.967 387.442 80.4309 386.657 80.7878C385.943 81.0733 385.122 81.3232 384.194 81.5373C383.266 81.68 382.338 81.8585 381.41 82.0726C380.839 82.2154 380.054 82.4295 379.055 82.715C378.056 82.9292 377.056 83.179 376.057 83.4645C375.058 83.75 374.166 83.9998 373.38 84.214C372.595 84.4281 372.131 84.5709 371.989 84.6422C369.776 85.5701 367.67 86.4624 365.672 87.3189C363.744 88.1041 362.031 88.9249 360.532 89.7814C359.105 90.638 357.963 91.5659 357.106 92.5652C356.321 93.4931 355.964 94.5281 356.036 95.6701V95.7772C356.749 96.7765 358.355 97.5259 360.854 98.0256C363.352 98.5252 366.278 98.9535 369.633 99.3104C373.059 99.6673 376.628 100.024 380.34 100.381C384.123 100.738 387.585 101.273 390.725 101.987C393.866 102.701 396.471 103.664 398.541 104.878C400.611 106.091 401.682 107.733 401.753 109.803C401.753 110.588 401.575 111.516 401.218 112.587C400.932 113.657 400.504 114.478 399.933 115.049C398.149 117.048 396.007 119.118 393.509 121.259C391.082 123.4 388.441 125.399 385.586 127.255C382.731 129.039 379.769 130.574 376.7 131.859C373.702 133.072 370.739 133.786 367.813 134C366.814 134 365.886 133.643 365.029 132.929C364.173 132.144 363.744 131.216 363.744 130.146Z" fill="#AE00FF"/>
</svg>
